<mxfile host="www.draw.io" modified="2019-11-07T16:11:50.824Z" agent="Mozilla/5.0 (Macintosh; Intel Mac OS X 10_14_0) AppleWebKit/537.36 (KHTML, like Gecko) Chrome/76.0.3809.100 Safari/537.36" etag="z9RFoVGBOL0ca5Fa5aYc" version="12.2.0" type="github" pages="3">
  <diagram id="Mo6LBxmEk3bTkz5pxvHl" name="第 1 页">
    <mxGraphModel dx="808" dy="506" grid="1" gridSize="10" guides="1" tooltips="1" connect="1" arrows="1" fold="1" page="1" pageScale="1" pageWidth="827" pageHeight="1169" math="0" shadow="0">
      <root>
        <mxCell id="0"/>
        <mxCell id="1" parent="0"/>
        <mxCell id="1EcYXQqY1AW5etACMld3-1" value="&lt;font style=&quot;font-size: 14px&quot;&gt;初始战场包Notify&lt;/font&gt;" style="rounded=1;whiteSpace=wrap;html=1;fillColor=#d5e8d4;strokeColor=#82b366;" parent="1" vertex="1">
          <mxGeometry x="250" y="200" width="160" height="30" as="geometry"/>
        </mxCell>
        <mxCell id="1EcYXQqY1AW5etACMld3-7" value="&lt;span style=&quot;font-size: 14px&quot;&gt;加入战场Req&lt;/span&gt;" style="rounded=1;whiteSpace=wrap;html=1;fillColor=#f5f5f5;strokeColor=#666666;fontColor=#333333;" parent="1" vertex="1">
          <mxGeometry x="250" y="237" width="160" height="30" as="geometry"/>
        </mxCell>
        <mxCell id="1EcYXQqY1AW5etACMld3-8" value="&lt;span style=&quot;font-size: 14px&quot;&gt;加入战场Rsp&lt;/span&gt;" style="rounded=1;whiteSpace=wrap;html=1;fillColor=#f5f5f5;strokeColor=#666666;fontColor=#333333;" parent="1" vertex="1">
          <mxGeometry x="250" y="273" width="160" height="30" as="geometry"/>
        </mxCell>
        <mxCell id="1EcYXQqY1AW5etACMld3-9" value="&lt;span style=&quot;font-size: 14px&quot;&gt;战前表演Notify&lt;/span&gt;" style="rounded=1;whiteSpace=wrap;html=1;fillColor=#fff2cc;strokeColor=#d6b656;" parent="1" vertex="1">
          <mxGeometry x="250" y="310" width="160" height="30" as="geometry"/>
        </mxCell>
        <mxCell id="1EcYXQqY1AW5etACMld3-10" value="&lt;span style=&quot;font-size: 14px&quot;&gt;表演结束Req&lt;/span&gt;" style="rounded=1;whiteSpace=wrap;html=1;fillColor=#f5f5f5;strokeColor=#666666;fontColor=#333333;" parent="1" vertex="1">
          <mxGeometry x="250" y="347" width="160" height="30" as="geometry"/>
        </mxCell>
        <mxCell id="1EcYXQqY1AW5etACMld3-11" value="&lt;span style=&quot;font-size: 14px&quot;&gt;新回合选招Notify&lt;/span&gt;" style="rounded=1;whiteSpace=wrap;html=1;fillColor=#f5f5f5;strokeColor=#666666;fontColor=#333333;" parent="1" vertex="1">
          <mxGeometry x="250" y="383" width="160" height="30" as="geometry"/>
        </mxCell>
        <mxCell id="1EcYXQqY1AW5etACMld3-12" value="&lt;span style=&quot;font-size: 14px&quot;&gt;回合选招Req&lt;/span&gt;" style="rounded=1;whiteSpace=wrap;html=1;fillColor=#f5f5f5;strokeColor=#666666;fontColor=#333333;" parent="1" vertex="1">
          <mxGeometry x="250" y="420" width="160" height="30" as="geometry"/>
        </mxCell>
        <mxCell id="1EcYXQqY1AW5etACMld3-13" value="&lt;span style=&quot;font-size: 14px&quot;&gt;回合选招广播Notify&lt;/span&gt;" style="rounded=1;whiteSpace=wrap;html=1;fillColor=#f5f5f5;strokeColor=#666666;fontColor=#333333;" parent="1" vertex="1">
          <mxGeometry x="250" y="457" width="160" height="30" as="geometry"/>
        </mxCell>
        <mxCell id="1EcYXQqY1AW5etACMld3-14" value="&lt;span style=&quot;font-size: 14px&quot;&gt;回合表演Notify&lt;/span&gt;" style="rounded=1;whiteSpace=wrap;html=1;fillColor=#fff2cc;strokeColor=#d6b656;" parent="1" vertex="1">
          <mxGeometry x="250" y="493" width="160" height="30" as="geometry"/>
        </mxCell>
        <mxCell id="1EcYXQqY1AW5etACMld3-15" value="&lt;span style=&quot;font-size: 14px&quot;&gt;战斗结束Notify&lt;/span&gt;" style="rounded=1;whiteSpace=wrap;html=1;fillColor=#f8cecc;strokeColor=#b85450;" parent="1" vertex="1">
          <mxGeometry x="250" y="569" width="160" height="30" as="geometry"/>
        </mxCell>
        <mxCell id="1EcYXQqY1AW5etACMld3-16" value="" style="shape=curlyBracket;whiteSpace=wrap;html=1;rounded=1;rotation=180;" parent="1" vertex="1">
          <mxGeometry x="420" y="200" width="10" height="31" as="geometry"/>
        </mxCell>
        <mxCell id="1EcYXQqY1AW5etACMld3-18" value="战场初始化" style="text;html=1;strokeColor=none;fillColor=none;align=left;verticalAlign=middle;whiteSpace=wrap;rounded=0;" parent="1" vertex="1">
          <mxGeometry x="440" y="205" width="100" height="20" as="geometry"/>
        </mxCell>
        <mxCell id="1EcYXQqY1AW5etACMld3-19" value="" style="shape=curlyBracket;whiteSpace=wrap;html=1;rounded=1;rotation=180;" parent="1" vertex="1">
          <mxGeometry x="420" y="244" width="10" height="53" as="geometry"/>
        </mxCell>
        <mxCell id="1EcYXQqY1AW5etACMld3-20" value="等待加入战场" style="text;html=1;strokeColor=none;fillColor=none;align=left;verticalAlign=middle;whiteSpace=wrap;rounded=0;" parent="1" vertex="1">
          <mxGeometry x="440" y="260" width="100" height="20" as="geometry"/>
        </mxCell>
        <mxCell id="1EcYXQqY1AW5etACMld3-21" value="" style="shape=curlyBracket;whiteSpace=wrap;html=1;rounded=1;rotation=180;" parent="1" vertex="1">
          <mxGeometry x="420" y="315" width="10" height="61" as="geometry"/>
        </mxCell>
        <mxCell id="1EcYXQqY1AW5etACMld3-22" value="战前表演" style="text;html=1;strokeColor=none;fillColor=none;align=left;verticalAlign=middle;whiteSpace=wrap;rounded=0;" parent="1" vertex="1">
          <mxGeometry x="440" y="335.5" width="100" height="20" as="geometry"/>
        </mxCell>
        <mxCell id="1EcYXQqY1AW5etACMld3-23" value="" style="shape=curlyBracket;whiteSpace=wrap;html=1;rounded=1;rotation=180;" parent="1" vertex="1">
          <mxGeometry x="420" y="387" width="10" height="99" as="geometry"/>
        </mxCell>
        <mxCell id="1EcYXQqY1AW5etACMld3-24" value="回合选招" style="text;html=1;strokeColor=none;fillColor=none;align=left;verticalAlign=middle;whiteSpace=wrap;rounded=0;" parent="1" vertex="1">
          <mxGeometry x="440" y="426.5" width="100" height="20" as="geometry"/>
        </mxCell>
        <mxCell id="1EcYXQqY1AW5etACMld3-25" value="" style="shape=curlyBracket;whiteSpace=wrap;html=1;rounded=1;rotation=180;" parent="1" vertex="1">
          <mxGeometry x="420" y="496" width="10" height="63" as="geometry"/>
        </mxCell>
        <mxCell id="1EcYXQqY1AW5etACMld3-26" value="回合表演" style="text;html=1;strokeColor=none;fillColor=none;align=left;verticalAlign=middle;whiteSpace=wrap;rounded=0;" parent="1" vertex="1">
          <mxGeometry x="440" y="517.5" width="100" height="20" as="geometry"/>
        </mxCell>
        <mxCell id="1EcYXQqY1AW5etACMld3-27" value="" style="shape=curlyBracket;whiteSpace=wrap;html=1;rounded=1;rotation=180;" parent="1" vertex="1">
          <mxGeometry x="420" y="569" width="10" height="31" as="geometry"/>
        </mxCell>
        <mxCell id="1EcYXQqY1AW5etACMld3-28" value="战斗结束" style="text;html=1;strokeColor=none;fillColor=none;align=left;verticalAlign=middle;whiteSpace=wrap;rounded=0;" parent="1" vertex="1">
          <mxGeometry x="440" y="574" width="100" height="20" as="geometry"/>
        </mxCell>
        <mxCell id="fwxOzJgDx7NrbOKx_MKM-1" value="&lt;span style=&quot;font-size: 14px&quot;&gt;表演结束Req&lt;/span&gt;" style="rounded=1;whiteSpace=wrap;html=1;fillColor=#f5f5f5;strokeColor=#666666;fontColor=#333333;" vertex="1" parent="1">
          <mxGeometry x="250" y="530" width="160" height="30" as="geometry"/>
        </mxCell>
      </root>
    </mxGraphModel>
  </diagram>
  <diagram id="VGo902D6HSAF3B_aYhcS" name="第 2 页">
    <mxGraphModel dx="1172" dy="733" grid="1" gridSize="10" guides="1" tooltips="1" connect="1" arrows="1" fold="1" page="1" pageScale="1" pageWidth="827" pageHeight="1169" math="0" shadow="0">
      <root>
        <mxCell id="jtouS-CkpzlIySkHyw7Z-0"/>
        <mxCell id="jtouS-CkpzlIySkHyw7Z-1" parent="jtouS-CkpzlIySkHyw7Z-0"/>
        <mxCell id="jtouS-CkpzlIySkHyw7Z-2" value="&lt;span style=&quot;font-size: 14px&quot;&gt;&lt;strike&gt;回合表演Notify&lt;/strike&gt;&lt;/span&gt;" style="rounded=1;whiteSpace=wrap;html=1;fillColor=#fff2cc;strokeColor=#d6b656;dashed=1;" vertex="1" parent="jtouS-CkpzlIySkHyw7Z-1">
          <mxGeometry x="40" y="490" width="160" height="30" as="geometry"/>
        </mxCell>
        <mxCell id="jtouS-CkpzlIySkHyw7Z-3" value="&lt;span style=&quot;font-size: 14px&quot;&gt;&lt;strike&gt;战斗结束Notify&lt;/strike&gt;&lt;/span&gt;" style="rounded=1;whiteSpace=wrap;html=1;fillColor=#f8cecc;strokeColor=#b85450;dashed=1;" vertex="1" parent="jtouS-CkpzlIySkHyw7Z-1">
          <mxGeometry x="40" y="566" width="160" height="30" as="geometry"/>
        </mxCell>
        <mxCell id="jtouS-CkpzlIySkHyw7Z-4" value="" style="shape=curlyBracket;whiteSpace=wrap;html=1;rounded=1;rotation=180;" vertex="1" parent="jtouS-CkpzlIySkHyw7Z-1">
          <mxGeometry x="210" y="496" width="10" height="101" as="geometry"/>
        </mxCell>
        <mxCell id="jtouS-CkpzlIySkHyw7Z-5" value="第一场战斗" style="text;html=1;strokeColor=none;fillColor=none;align=left;verticalAlign=middle;whiteSpace=wrap;rounded=0;" vertex="1" parent="jtouS-CkpzlIySkHyw7Z-1">
          <mxGeometry x="230" y="536.5" width="100" height="20" as="geometry"/>
        </mxCell>
        <mxCell id="jtouS-CkpzlIySkHyw7Z-6" value="&lt;span style=&quot;font-size: 14px&quot;&gt;&lt;strike&gt;表演结束Req&lt;/strike&gt;&lt;/span&gt;" style="rounded=1;whiteSpace=wrap;html=1;fillColor=#f5f5f5;strokeColor=#666666;fontColor=#333333;shadow=0;comic=0;glass=0;dashed=1;" vertex="1" parent="jtouS-CkpzlIySkHyw7Z-1">
          <mxGeometry x="40" y="527" width="160" height="30" as="geometry"/>
        </mxCell>
        <mxCell id="jtouS-CkpzlIySkHyw7Z-7" value="&lt;font style=&quot;font-size: 14px&quot;&gt;初始战场包Notify&lt;/font&gt;" style="rounded=1;whiteSpace=wrap;html=1;fillColor=#d5e8d4;strokeColor=#82b366;" vertex="1" parent="jtouS-CkpzlIySkHyw7Z-1">
          <mxGeometry x="40" y="607" width="160" height="30" as="geometry"/>
        </mxCell>
        <mxCell id="jtouS-CkpzlIySkHyw7Z-8" value="" style="shape=curlyBracket;whiteSpace=wrap;html=1;rounded=1;rotation=180;" vertex="1" parent="jtouS-CkpzlIySkHyw7Z-1">
          <mxGeometry x="210" y="607" width="10" height="31" as="geometry"/>
        </mxCell>
        <mxCell id="jtouS-CkpzlIySkHyw7Z-9" value="第二场战斗" style="text;html=1;strokeColor=none;fillColor=none;align=left;verticalAlign=middle;whiteSpace=wrap;rounded=0;" vertex="1" parent="jtouS-CkpzlIySkHyw7Z-1">
          <mxGeometry x="230" y="612" width="100" height="20" as="geometry"/>
        </mxCell>
        <mxCell id="jtouS-CkpzlIySkHyw7Z-10" value="战斗协议缓存队列" style="text;html=1;strokeColor=none;fillColor=none;align=center;verticalAlign=middle;whiteSpace=wrap;rounded=0;" vertex="1" parent="jtouS-CkpzlIySkHyw7Z-1">
          <mxGeometry x="28" y="654" width="190" height="20" as="geometry"/>
        </mxCell>
        <mxCell id="jtouS-CkpzlIySkHyw7Z-11" value="" style="endArrow=none;html=1;" edge="1" parent="jtouS-CkpzlIySkHyw7Z-1">
          <mxGeometry width="50" height="50" relative="1" as="geometry">
            <mxPoint x="40" y="650" as="sourcePoint"/>
            <mxPoint x="200" y="650" as="targetPoint"/>
          </mxGeometry>
        </mxCell>
      </root>
    </mxGraphModel>
  </diagram>
  <diagram id="4w3UVOPz-rZgDat72Uv-" name="第 3 页">
    <mxGraphModel dx="1804" dy="639" grid="1" gridSize="10" guides="1" tooltips="1" connect="1" arrows="1" fold="1" page="1" pageScale="1" pageWidth="827" pageHeight="1169" background="none" math="0" shadow="0">
      <root>
        <mxCell id="-TiF2f3TWj4qQbBdXk7X-0"/>
        <mxCell id="-TiF2f3TWj4qQbBdXk7X-1" parent="-TiF2f3TWj4qQbBdXk7X-0"/>
        <mxCell id="tZGGWpFwiEsTafJwINTU-0" value="&lt;font style=&quot;font-size: 14px&quot;&gt;战斗场景&lt;/font&gt;" style="rounded=1;whiteSpace=wrap;html=1;fillColor=#d5e8d4;strokeColor=#82b366;" vertex="1" parent="-TiF2f3TWj4qQbBdXk7X-1">
          <mxGeometry x="130" y="400" width="160" height="30" as="geometry"/>
        </mxCell>
        <mxCell id="tZGGWpFwiEsTafJwINTU-1" value="&lt;font style=&quot;font-size: 14px&quot;&gt;背景图&lt;/font&gt;" style="rounded=1;whiteSpace=wrap;html=1;fillColor=#d5e8d4;strokeColor=#82b366;" vertex="1" parent="-TiF2f3TWj4qQbBdXk7X-1">
          <mxGeometry x="130" y="363" width="160" height="30" as="geometry"/>
        </mxCell>
        <mxCell id="tZGGWpFwiEsTafJwINTU-3" value="&lt;span style=&quot;font-size: 14px&quot;&gt;模型&lt;/span&gt;" style="rounded=1;whiteSpace=wrap;html=1;fillColor=#d5e8d4;strokeColor=#82b366;" vertex="1" parent="-TiF2f3TWj4qQbBdXk7X-1">
          <mxGeometry x="130" y="211" width="160" height="30" as="geometry"/>
        </mxCell>
        <mxCell id="tZGGWpFwiEsTafJwINTU-4" value="&lt;span style=&quot;font-size: 14px&quot;&gt;骨骼动画&lt;/span&gt;" style="rounded=1;whiteSpace=wrap;html=1;fillColor=#d5e8d4;strokeColor=#82b366;" vertex="1" parent="-TiF2f3TWj4qQbBdXk7X-1">
          <mxGeometry x="130" y="174" width="160" height="30" as="geometry"/>
        </mxCell>
        <mxCell id="tZGGWpFwiEsTafJwINTU-5" value="&lt;span style=&quot;font-size: 14px&quot;&gt;技能&lt;/span&gt;" style="rounded=1;whiteSpace=wrap;html=1;fillColor=#d5e8d4;strokeColor=#82b366;" vertex="1" parent="-TiF2f3TWj4qQbBdXk7X-1">
          <mxGeometry x="130" y="137" width="160" height="30" as="geometry"/>
        </mxCell>
        <mxCell id="tZGGWpFwiEsTafJwINTU-6" value="&lt;span style=&quot;font-size: 14px&quot;&gt;HUD&lt;/span&gt;" style="rounded=1;whiteSpace=wrap;html=1;fillColor=#d5e8d4;strokeColor=#82b366;" vertex="1" parent="-TiF2f3TWj4qQbBdXk7X-1">
          <mxGeometry x="130" y="323" width="160" height="30" as="geometry"/>
        </mxCell>
        <mxCell id="tZGGWpFwiEsTafJwINTU-7" value="&lt;span style=&quot;font-size: 14px&quot;&gt;功能模块UI&lt;/span&gt;" style="rounded=1;whiteSpace=wrap;html=1;fillColor=#d5e8d4;strokeColor=#82b366;" vertex="1" parent="-TiF2f3TWj4qQbBdXk7X-1">
          <mxGeometry x="130" y="286" width="160" height="30" as="geometry"/>
        </mxCell>
        <mxCell id="tZGGWpFwiEsTafJwINTU-8" value="&lt;span style=&quot;font-size: 14px&quot;&gt;通用特效&lt;/span&gt;" style="rounded=1;whiteSpace=wrap;html=1;fillColor=#d5e8d4;strokeColor=#82b366;" vertex="1" parent="-TiF2f3TWj4qQbBdXk7X-1">
          <mxGeometry x="130" y="248" width="160" height="30" as="geometry"/>
        </mxCell>
        <mxCell id="tZGGWpFwiEsTafJwINTU-9" value="&lt;span style=&quot;font-size: 14px&quot;&gt;Buff&lt;/span&gt;" style="rounded=1;whiteSpace=wrap;html=1;fillColor=#d5e8d4;strokeColor=#82b366;" vertex="1" parent="-TiF2f3TWj4qQbBdXk7X-1">
          <mxGeometry x="130" y="100" width="160" height="30" as="geometry"/>
        </mxCell>
        <mxCell id="tZGGWpFwiEsTafJwINTU-11" value="登陆预加载" style="text;html=1;strokeColor=none;fillColor=none;align=center;verticalAlign=middle;whiteSpace=wrap;rounded=0;shadow=0;glass=0;dashed=1;comic=0;" vertex="1" parent="-TiF2f3TWj4qQbBdXk7X-1">
          <mxGeometry x="320" y="405" width="140" height="20" as="geometry"/>
        </mxCell>
        <mxCell id="tZGGWpFwiEsTafJwINTU-12" value="切换场景加载" style="text;html=1;strokeColor=none;fillColor=none;align=center;verticalAlign=middle;whiteSpace=wrap;rounded=0;shadow=0;glass=0;dashed=1;comic=0;" vertex="1" parent="-TiF2f3TWj4qQbBdXk7X-1">
          <mxGeometry x="320" y="373" width="140" height="20" as="geometry"/>
        </mxCell>
        <mxCell id="tZGGWpFwiEsTafJwINTU-14" value="登陆预加载" style="text;html=1;strokeColor=none;fillColor=none;align=center;verticalAlign=middle;whiteSpace=wrap;rounded=0;shadow=0;glass=0;dashed=1;comic=0;" vertex="1" parent="-TiF2f3TWj4qQbBdXk7X-1">
          <mxGeometry x="320" y="328" width="140" height="20" as="geometry"/>
        </mxCell>
        <mxCell id="tZGGWpFwiEsTafJwINTU-15" value="各功能模块加载缓存" style="text;html=1;strokeColor=none;fillColor=none;align=center;verticalAlign=middle;whiteSpace=wrap;rounded=0;shadow=0;glass=0;dashed=1;comic=0;" vertex="1" parent="-TiF2f3TWj4qQbBdXk7X-1">
          <mxGeometry x="320" y="291" width="140" height="20" as="geometry"/>
        </mxCell>
        <mxCell id="tZGGWpFwiEsTafJwINTU-16" value="高配机登陆预加载" style="text;html=1;strokeColor=none;fillColor=none;align=center;verticalAlign=middle;whiteSpace=wrap;rounded=0;shadow=0;glass=0;dashed=1;comic=0;" vertex="1" parent="-TiF2f3TWj4qQbBdXk7X-1">
          <mxGeometry x="320" y="254" width="140" height="20" as="geometry"/>
        </mxCell>
        <mxCell id="tZGGWpFwiEsTafJwINTU-18" value="&lt;table border=&quot;1&quot; width=&quot;100%&quot; cellpadding=&quot;4&quot; style=&quot;width: 100% ; height: 100% ; border-collapse: collapse&quot;&gt;&lt;tbody&gt;&lt;tr style=&quot;background-color: #a7c942 ; color: #ffffff ; border: 1px solid #98bf21&quot;&gt;&lt;th align=&quot;left&quot;&gt;资源&lt;/th&gt;&lt;th align=&quot;left&quot;&gt;加载策略&lt;/th&gt;&lt;th align=&quot;left&quot;&gt;缓存策略&lt;/th&gt;&lt;/tr&gt;&lt;tr style=&quot;border: 1px solid #98bf21&quot;&gt;&lt;td&gt;战斗场景&lt;/td&gt;&lt;td&gt;登录预加载&lt;/td&gt;&lt;td&gt;常驻内存&lt;/td&gt;&lt;/tr&gt;&lt;tr style=&quot;background-color: #eaf2d3 ; border: 1px solid #98bf21&quot;&gt;&lt;td&gt;全屏背景图&lt;/td&gt;&lt;td&gt;根据场景切换&lt;/td&gt;&lt;td&gt;常驻一张全屏图&lt;/td&gt;&lt;/tr&gt;&lt;tr style=&quot;border: 1px solid #98bf21&quot;&gt;&lt;td&gt;战斗HUD&lt;/td&gt;&lt;td&gt;高配登录预加载；&lt;br&gt;低配进战斗加载&lt;/td&gt;&lt;td&gt;高配常驻内存；&lt;br&gt;低配出战斗卸载&lt;/td&gt;&lt;/tr&gt;&lt;tr&gt;&lt;td&gt;&lt;br&gt;&lt;/td&gt;&lt;td&gt;&lt;br&gt;&lt;/td&gt;&lt;td&gt;&lt;table&gt;&lt;tbody&gt;&lt;tr&gt;&lt;table&gt;&lt;tbody&gt;&lt;tr&gt;&lt;td&gt;&lt;br&gt;&lt;/td&gt;&lt;td&gt;&lt;br&gt;&lt;/td&gt;&lt;td&gt;&lt;br&gt;&lt;/td&gt;&lt;td&gt;&lt;br&gt;&lt;/td&gt;&lt;td&gt;&lt;br&gt;&lt;/td&gt;&lt;td&gt;&lt;br&gt;&lt;/td&gt;&lt;/tr&gt;&lt;tr&gt;&lt;td&gt;&lt;br&gt;&lt;/td&gt;&lt;td&gt;&lt;br&gt;&lt;/td&gt;&lt;td&gt;&lt;br&gt;&lt;/td&gt;&lt;td&gt;&lt;br&gt;&lt;/td&gt;&lt;td&gt;&lt;br&gt;&lt;/td&gt;&lt;td&gt;&lt;br&gt;&lt;/td&gt;&lt;/tr&gt;&lt;tr&gt;&lt;td&gt;&lt;br&gt;&lt;/td&gt;&lt;td&gt;&lt;br&gt;&lt;/td&gt;&lt;td&gt;&lt;br&gt;&lt;/td&gt;&lt;td&gt;&lt;br&gt;&lt;/td&gt;&lt;td&gt;&lt;br&gt;&lt;/td&gt;&lt;td&gt;&lt;br&gt;&lt;/td&gt;&lt;/tr&gt;&lt;tr&gt;&lt;td&gt;&lt;br&gt;&lt;/td&gt;&lt;td&gt;&lt;br&gt;&lt;/td&gt;&lt;td&gt;&lt;br&gt;&lt;/td&gt;&lt;td&gt;&lt;br&gt;&lt;/td&gt;&lt;td&gt;&lt;br&gt;&lt;/td&gt;&lt;td&gt;&lt;br&gt;&lt;/td&gt;&lt;/tr&gt;&lt;tr&gt;&lt;td&gt;&lt;br&gt;&lt;/td&gt;&lt;td&gt;&lt;br&gt;&lt;/td&gt;&lt;td&gt;&lt;br&gt;&lt;/td&gt;&lt;td&gt;&lt;br&gt;&lt;/td&gt;&lt;td&gt;&lt;br&gt;&lt;/td&gt;&lt;td&gt;&lt;br&gt;&lt;/td&gt;&lt;/tr&gt;&lt;tr&gt;&lt;td&gt;&lt;br&gt;&lt;/td&gt;&lt;td&gt;&lt;br&gt;&lt;/td&gt;&lt;td&gt;&lt;br&gt;&lt;/td&gt;&lt;td&gt;&lt;br&gt;&lt;/td&gt;&lt;td&gt;&lt;br&gt;&lt;/td&gt;&lt;td&gt;&lt;br&gt;&lt;/td&gt;&lt;/tr&gt;&lt;/tbody&gt;&lt;/table&gt;&lt;td&gt;&lt;br&gt;&lt;/td&gt;&lt;td&gt;&lt;br&gt;&lt;/td&gt;&lt;/tr&gt;&lt;tr&gt;&lt;td&gt;&lt;br&gt;&lt;/td&gt;&lt;td&gt;&lt;br&gt;&lt;/td&gt;&lt;td&gt;&lt;br&gt;&lt;/td&gt;&lt;/tr&gt;&lt;tr&gt;&lt;td&gt;&lt;br&gt;&lt;/td&gt;&lt;td&gt;&lt;br&gt;&lt;/td&gt;&lt;td&gt;&lt;br&gt;&lt;/td&gt;&lt;/tr&gt;&lt;/tbody&gt;&lt;/table&gt;&lt;br&gt;&lt;/td&gt;&lt;/tr&gt;&lt;tr&gt;&lt;td&gt;&lt;br&gt;&lt;/td&gt;&lt;td&gt;&lt;br&gt;&lt;/td&gt;&lt;td&gt;&lt;br&gt;&lt;/td&gt;&lt;/tr&gt;&lt;tr style=&quot;background-color: #eaf2d3 ; border: 1px solid #98bf21&quot;&gt;&lt;td&gt;功能模块UI&lt;/td&gt;&lt;td&gt;战中即时加载&lt;/td&gt;&lt;td&gt;出战斗统一卸载&lt;br&gt;&lt;/td&gt;&lt;/tr&gt;&lt;/tbody&gt;&lt;/table&gt;" style="text;html=1;overflow=fill;rounded=0;shadow=0;glass=0;dashed=1;comic=0;align=left;fillColor=#f5f5f5;strokeColor=#666666;fontColor=#333333;allowArrows=1;connectable=1;imageAspect=1;" vertex="1" parent="-TiF2f3TWj4qQbBdXk7X-1">
          <mxGeometry x="20" y="470" width="470" height="360" as="geometry"/>
        </mxCell>
        <mxCell id="tZGGWpFwiEsTafJwINTU-20" value="&lt;table border=&quot;1&quot; width=&quot;100%&quot; cellpadding=&quot;4&quot; style=&quot;width: 100% ; height: 100% ; border-collapse: collapse ; border: 1px solid rgb(185 , 224 , 165)&quot;&gt;&lt;tbody&gt;&lt;tr style=&quot;background-color: rgb(167 , 201 , 66) ; color: rgb(255 , 255 , 255)&quot;&gt;&lt;th align=&quot;left&quot;&gt;Title 1&lt;/th&gt;&lt;th align=&quot;left&quot;&gt;Title 2&lt;/th&gt;&lt;th align=&quot;left&quot;&gt;Title 3&lt;/th&gt;&lt;/tr&gt;&lt;tr&gt;&lt;td&gt;战斗场景&lt;br&gt;&lt;/td&gt;&lt;td&gt;登录预加载&lt;br&gt;&lt;/td&gt;&lt;td&gt;常驻内存&lt;br&gt;&lt;/td&gt;&lt;/tr&gt;&lt;tr style=&quot;background-color: rgb(234 , 242 , 211)&quot;&gt;&lt;td&gt;全屏背景图&lt;br&gt;&lt;/td&gt;&lt;td&gt;Value 5&lt;/td&gt;&lt;td style=&quot;background-color: rgb(216 , 240 , 192)&quot;&gt;Value 6&lt;/td&gt;&lt;/tr&gt;&lt;tr&gt;&lt;td&gt;Value 7&lt;/td&gt;&lt;td&gt;Value 8&lt;/td&gt;&lt;td&gt;Value 9&lt;/td&gt;&lt;/tr&gt;&lt;tr&gt;&lt;td style=&quot;background-color: rgb(216 , 240 , 192)&quot;&gt;&lt;br&gt;&lt;/td&gt;&lt;td style=&quot;background-color: rgb(216 , 240 , 192)&quot;&gt;&lt;br&gt;&lt;/td&gt;&lt;td style=&quot;background-color: rgb(216 , 240 , 192)&quot;&gt;&lt;br&gt;&lt;/td&gt;&lt;/tr&gt;&lt;tr&gt;&lt;td&gt;&lt;br&gt;&lt;/td&gt;&lt;td&gt;&lt;br&gt;&lt;/td&gt;&lt;td&gt;&lt;br&gt;&lt;/td&gt;&lt;/tr&gt;&lt;tr&gt;&lt;td&gt;&lt;br&gt;&lt;/td&gt;&lt;td&gt;&lt;br&gt;&lt;/td&gt;&lt;td&gt;&lt;br&gt;&lt;/td&gt;&lt;/tr&gt;&lt;tr&gt;&lt;td&gt;&lt;br&gt;&lt;/td&gt;&lt;td&gt;&lt;br&gt;&lt;/td&gt;&lt;td&gt;&lt;br&gt;&lt;/td&gt;&lt;/tr&gt;&lt;tr&gt;&lt;td&gt;&lt;br&gt;&lt;/td&gt;&lt;td&gt;&lt;br&gt;&lt;/td&gt;&lt;td&gt;&lt;br&gt;&lt;/td&gt;&lt;/tr&gt;&lt;tr style=&quot;background-color: rgb(234 , 242 , 211)&quot;&gt;&lt;td&gt;Value 10&lt;/td&gt;&lt;td&gt;Value 11&lt;/td&gt;&lt;td&gt;Value 12&lt;/td&gt;&lt;/tr&gt;&lt;/tbody&gt;&lt;/table&gt;" style="text;html=1;overflow=fill;rounded=0;shadow=0;glass=0;dashed=1;comic=0;labelBackgroundColor=none;align=left;imageAspect=1;fontColor=#333333;strokeColor=none;fillColor=#ffffff;" vertex="1" parent="-TiF2f3TWj4qQbBdXk7X-1">
          <mxGeometry x="420" y="820" width="280" height="280" as="geometry"/>
        </mxCell>
        <mxCell id="tZGGWpFwiEsTafJwINTU-21" value="&lt;table border=&quot;1&quot; width=&quot;100%&quot; cellpadding=&quot;4&quot; style=&quot;width: 100% ; height: 100% ; border-collapse: collapse ; border: 1px solid rgb(124 , 150 , 111)&quot;&gt;&lt;tbody&gt;&lt;tr style=&quot;background-color: rgb(167 , 201 , 66) ; color: rgb(255 , 255 , 255)&quot;&gt;&lt;th align=&quot;left&quot;&gt;资源&lt;/th&gt;&lt;th align=&quot;left&quot;&gt;加载策略&lt;/th&gt;&lt;th align=&quot;left&quot;&gt;缓存策略&lt;/th&gt;&lt;/tr&gt;&lt;tr&gt;&lt;td&gt;战斗场景&lt;/td&gt;&lt;td&gt;登录预加载&lt;/td&gt;&lt;td&gt;常驻内存&lt;/td&gt;&lt;/tr&gt;&lt;tr&gt;&lt;td style=&quot;background-color: rgb(202 , 224 , 180)&quot;&gt;全屏背景图&lt;/td&gt;&lt;td style=&quot;background-color: rgb(202 , 224 , 180)&quot;&gt;根据场景切换&lt;/td&gt;&lt;td style=&quot;background-color: rgb(202 , 224 , 180)&quot;&gt;常驻一张全屏图&lt;/td&gt;&lt;/tr&gt;&lt;tr&gt;&lt;td&gt;战斗HUD&lt;/td&gt;&lt;td&gt;高配登录预加载；&lt;br&gt;低配进战斗预加载&lt;/td&gt;&lt;td&gt;高配常驻内存；&lt;br&gt;低配出战斗卸载&lt;/td&gt;&lt;/tr&gt;&lt;tr&gt;&lt;td&gt;功能模块UI&lt;/td&gt;&lt;td&gt;战中即时加载&lt;/td&gt;&lt;td&gt;出战斗卸载&lt;/td&gt;&lt;/tr&gt;&lt;tr&gt;&lt;td&gt;通用特效&lt;/td&gt;&lt;td&gt;高配登录预加载；&lt;br&gt;低配进战斗预加载&lt;/td&gt;&lt;td&gt;高配缓存池管理；&lt;br&gt;低配出战斗卸载&lt;/td&gt;&lt;/tr&gt;&lt;tr&gt;&lt;td&gt;己方模型&lt;/td&gt;&lt;td&gt;进战斗预加载&lt;/td&gt;&lt;td&gt;高配缓存到下一场战斗；&lt;br&gt;低配出战斗卸载&lt;/td&gt;&lt;/tr&gt;&lt;tr&gt;&lt;td&gt;敌方模型&lt;/td&gt;&lt;td&gt;进战斗预加载&lt;/td&gt;&lt;td&gt;出战斗卸载&lt;/td&gt;&lt;/tr&gt;&lt;tr&gt;&lt;td&gt;骨骼动画&lt;/td&gt;&lt;td&gt;模型仅加载4个基本骨骼动画，&lt;br&gt;其余动画按需回合加载&lt;br&gt;&lt;/td&gt;&lt;td&gt;出战斗卸载&lt;/td&gt;&lt;/tr&gt;&lt;tr&gt;&lt;td&gt;技能&lt;/td&gt;&lt;td&gt;回合按需加载&lt;/td&gt;&lt;td&gt;&lt;br&gt;&lt;/td&gt;&lt;/tr&gt;&lt;tr&gt;&lt;td&gt;Buff&lt;/td&gt;&lt;td&gt;回合按需加载&lt;/td&gt;&lt;td&gt;&lt;br&gt;&lt;/td&gt;&lt;/tr&gt;&lt;tr&gt;&lt;td&gt;&lt;br&gt;&lt;/td&gt;&lt;td&gt;&lt;br&gt;&lt;/td&gt;&lt;td&gt;&lt;br&gt;&lt;/td&gt;&lt;/tr&gt;&lt;/tbody&gt;&lt;/table&gt;" style="text;html=1;overflow=fill;rounded=0;shadow=0;glass=0;comic=0;align=left;labelBackgroundColor=none;fillColor=#f5f5f5;strokeColor=none;fontColor=#333333;" vertex="1" parent="-TiF2f3TWj4qQbBdXk7X-1">
          <mxGeometry x="-520" y="248" width="410" height="450" as="geometry"/>
        </mxCell>
        <mxCell id="tZGGWpFwiEsTafJwINTU-28" value="&lt;table border=&quot;0&quot; width=&quot;100%&quot; height=&quot;100%&quot; style=&quot;width:100%;height:100%;border-collapse:collapse;&quot;&gt;&lt;tr&gt;&lt;td align=&quot;center&quot;&gt;Value 1&lt;/td&gt;&lt;td align=&quot;center&quot;&gt;Value 2&lt;/td&gt;&lt;td align=&quot;center&quot;&gt;Value 3&lt;/td&gt;&lt;/tr&gt;&lt;tr&gt;&lt;td align=&quot;center&quot;&gt;Value 4&lt;/td&gt;&lt;td align=&quot;center&quot;&gt;Value 5&lt;/td&gt;&lt;td align=&quot;center&quot;&gt;Value 6&lt;/td&gt;&lt;/tr&gt;&lt;tr&gt;&lt;td align=&quot;center&quot;&gt;Value 7&lt;/td&gt;&lt;td align=&quot;center&quot;&gt;Value 8&lt;/td&gt;&lt;td align=&quot;center&quot;&gt;Value 9&lt;/td&gt;&lt;/tr&gt;&lt;/table&gt;" style="text;html=1;strokeColor=#666666;fillColor=#f5f5f5;overflow=fill;rounded=0;shadow=0;glass=0;comic=0;align=left;fontColor=#333333;" vertex="1" parent="-TiF2f3TWj4qQbBdXk7X-1">
          <mxGeometry x="-660" y="1250" width="180" height="140" as="geometry"/>
        </mxCell>
      </root>
    </mxGraphModel>
  </diagram>
</mxfile>
